<?xml version="1.0" encoding="iso-8859-1"?>
<!-- Uploaded to: SVG Repo, www.svgrepo.com, Generator: SVG Repo Mixer Tools -->
<svg fill="#000000" height="800px" width="800px" version="1.1" id="Layer_1" xmlns="http://www.w3.org/2000/svg" xmlns:xlink="http://www.w3.org/1999/xlink" 
	 viewBox="0 0 512 512" xml:space="preserve">
<g>
	<g>
		<path d="M461.695,233.557l-140.527-69.982c-4.438-2.209-9.605-2.209-14.044,0l-20.917,10.422
			c6.802-25.401,6.396-53.929-1.922-81.196c-13.418-43.983-45.703-79.235-84.265-91.999c-6.365-2.106-13.367,0.029-17.473,5.332
			c-24.011,31.006-31.464,76.139-19.877,118.8c-43.632-7.061-87.731,5.067-116.053,32.178c-4.845,4.638-6.238,11.826-3.477,17.938
			c16.72,37.018,55.331,65.451,100.474,74.204c4.776,0.926,9.248,1.615,14.52,2.083v244.362c0,8.735,6.723,16.302,15.459,16.302
			h119.199h42.859H454.85c8.735,0,15.415-7.567,15.415-16.302v-247.98C470.264,241.716,467.068,236.231,461.695,233.557z
			 M201.028,35.392c24.108,12.17,43.887,36.731,53.01,66.64c6.258,20.514,6.952,41.737,2.51,60.647
			c-4.332-14.083-8.371-27.112-9.27-30.014c-2.588-8.344-11.449-13.01-19.793-10.424c-8.344,2.588-13.01,11.449-10.424,19.793
			c2.744,8.848,6.129,19.802,9.371,30.344c-14.439-13.244-25.872-31.389-32.191-52.104
			C185.118,90.366,187.818,58.947,201.028,35.392z M149.454,218.196c-30.697-5.952-57.188-23.058-71.81-45.763
			c22.047-15.597,53.013-21.563,83.711-15.613c5.604,1.086,11.065,2.549,16.341,4.344c10.764,18.729,25.207,34.578,41.894,45.995
			l-21.055,10.477C183.094,221.134,166.235,221.449,149.454,218.196z M319.472,480.365h-10.545v-59.052h10.545V480.365z
			 M438.63,480.365h-87.523v-75.086c0-8.735-6.72-15.6-15.456-15.6h-42.859c-8.735,0-15.5,6.865-15.5,15.6v75.086h-87.523V311.646
			H438.63V480.365z M438.63,280.012H189.769v-22.498l124.43-62.11l124.43,62.11V280.012z"/>
	</g>
</g>
</svg>