<?xml version="1.0" encoding="iso-8859-1"?>
<!-- Uploaded to: SVG Repo, www.svgrepo.com, Generator: SVG Repo Mixer Tools -->
<!DOCTYPE svg PUBLIC "-//W3C//DTD SVG 1.1//EN" "http://www.w3.org/Graphics/SVG/1.1/DTD/svg11.dtd">
<svg fill="#000000" version="1.1" id="Capa_1" xmlns="http://www.w3.org/2000/svg" xmlns:xlink="http://www.w3.org/1999/xlink" 
	 width="800px" height="800px" viewBox="0 0 492.027 492.027"
	 xml:space="preserve">
<g>
	<g>
		<g id="Icons_13_">
			<g>
				<path d="M68.317,299.661c-5.79-5.786-15.155-5.786-20.938-0.017l-18.893,18.869c-1.855,1.861-3.201,4.187-3.867,6.745
					l-19.613,75.05c-1.326,5.097,0.143,10.493,3.853,14.217l8.753,8.744l-7.061,7.057c-14.068,14.071-14.068,36.883,0,50.953
					c14.081,14.084,36.888,14.084,50.956,0l7.061-7.047l8.726,8.736c3.744,3.724,9.148,5.202,14.231,3.866l75.053-19.613
					c2.562-0.669,4.879-2.004,6.748-3.867l18.859-18.876c5.783-5.786,5.783-15.168,0-20.955L68.317,299.661z"/>
				<path d="M478.481,94.36c-17.484-17.502-47.999-17.502-65.484,0l-170.27,170.282l-15.536-15.528L397.429,78.62
					c17.996-18.023,17.981-47.327-0.014-65.333c-17.458-17.468-47.917-17.468-65.375,0L83.98,261.351
					c-3.072,3.068-4.798,7.229-4.798,11.57c0,4.339,1.726,8.505,4.798,11.571l123.373,123.359c3.194,3.198,7.387,4.794,11.573,4.794
					c4.187,0,8.373-1.596,11.573-4.794l247.997-247.989C496.54,141.801,496.54,112.415,478.481,94.36z M455.336,136.718
					L218.927,373.137L118.695,272.921l236.49-236.492c5.118-5.097,13.974-5.097,19.083,0c5.247,5.25,5.247,13.803,0,19.059
					l-181.796,182.07c-6.388,6.392-6.388,16.751,0,23.136l38.683,38.662c6.395,6.396,16.75,6.396,23.146,0l181.838-181.852
					c5.131-5.131,14.067-5.131,19.198,0C460.644,122.806,460.644,131.419,455.336,136.718z"/>
			</g>
		</g>
	</g>
</g>
</svg>